#!OML:ASF I:\Random Stuff\random\construction\7_22_03\Session 2\subj1.ASF
:FULLY-SPECIFIED
:DEGREES
652
root -8.32831 17.6812 -5.61669 -320.621 116.946 -337.412
lowerback 13.7064 2.11646 -6.43319
upperback 7.25936 2.94182 -8.84351
thorax 0.250851 1.8797 -6.13343
lowerneck -20.9741 -4.60608 -4.03947
upperneck 45.2247 -6.31101 9.56641
head 24.1887 -1.06519 5.01502
rclavicle 1.59028e-014 1.59028e-014
rhumerus -13.0646 62.2881 -63.0807
rradius 77.9639
rwrist -28.2644
rhand -16.4899 -9.26275
rfingers 7.12502
rthumb 9.72752 -39.0181
lclavicle 1.59028e-014 1.59028e-014
lhumerus 58.9788 -74.4389 33.0415
lradius 41.2397
lwrist -15.046
lhand -18.7353 59.9834
lfingers 7.12502
lthumb 7.56062 449.828
rfemur -12.335 -5.29651 25.6558
rtibia 1.98785e-014
rfoot -2.39157 -9.97127
rtoes -25.8712
lfemur -39.2365 -13.8332 1.16639
ltibia 34.068
lfoot -14.6618 0.429799
ltoes -36.825
653
root -8.33256 17.6842 -5.61421 -320.699 116.847 -337.553
lowerback 13.6968 2.10272 -6.5618
upperback 7.23499 2.90071 -8.79574
thorax 0.21923 1.85188 -6.00317
lowerneck -21.1072 -4.5684 -4.11284
upperneck 45.2282 -6.18325 9.47037
head 24.2173 -1.0463 5.00787
rclavicle -5.08889e-014 3.18055e-014
rhumerus -13.2197 62.302 -63.1598
rradius 78.2621
rwrist -25.0591
rhand -15.8523 -9.30095
rfingers 7.12502
rthumb 10.3426 -39.0266
lclavicle -5.08889e-014 3.18055e-014
lhumerus 57.6458 -74.297 34.4868
lradius 41.2191
lwrist -15.2043
lhand -18.6048 59.8254
lfingers 7.12502
lthumb 7.6866 449.666
rfemur -12.413 -5.25556 25.5461
rtibia 1.11319e-014
rfoot -2.36328 -9.98282
rtoes -25.8703
lfemur -39.2259 -13.5872 0.971237
ltibia 33.9595
lfoot -14.6059 0.246294
ltoes -36.847
654
root -8.3362 17.6872 -5.61205 -320.773 116.737 -337.673
lowerback 13.6841 2.09283 -6.68326
upperback 7.22395 2.86821 -8.74224
thorax 0.204297 1.82865 -5.8714
lowerneck -21.2262 -4.49033 -4.14554
upperneck 45.2021 -5.98636 9.31559
head 24.1822 -1.00174 4.96703
rclavicle 3.81667e-014 0
rhumerus -13.3522 62.3171 -63.1483
rradius 78.6298
rwrist -21.7835
rhand -15.1717 -9.27885
rfingers 7.12502
rthumb 10.9991 -38.9707
lclavicle 3.81667e-014 0
lhumerus 56.484 -74.155 35.7309
lradius 41.2252
lwrist -15.3885
lhand -18.5361 59.8593
lfingers 7.12502
lthumb 7.7529 449.697
rfemur -12.481 -5.20022 25.4405
rtibia 2.06736e-014
rfoot -2.30933 -9.99058
rtoes -26.1024
lfemur -39.1895 -13.4706 0.832516
ltibia 33.8429
lfoot -14.5361 0.183688
ltoes -36.8132
655
root -8.34039 17.6898 -5.61181 -320.844 116.611 -337.763
lowerback 13.6627 2.07926 -6.81399
upperback 7.2222 2.8336 -8.69656
thorax 0.204474 1.80483 -5.74203
lowerneck -21.306 -4.43202 -4.19178
upperneck 45.1903 -5.82128 9.18148
head 24.1564 -0.969402 4.93517
rclavicle 0 -1.08139e-013
rhumerus -13.4763 62.437 -63.1427
rradius 79.0593
rwrist -19.2552
rhand -14.6884 -9.40715
rfingers 7.12502
rthumb 11.4652 -39.0736
lclavicle 0 -1.08139e-013
lhumerus 55.5254 -74.0195 36.6861
lradius 41.2804
lwrist -15.4643
lhand -18.632 59.8833
lfingers 7.12502
lthumb 7.66038 449.725
rfemur -12.5198 -5.12692 25.3261
rtibia -1.03368e-014
rfoot -2.25567 -9.99529
rtoes -26.3705
lfemur -39.1205 -13.523 0.758104
ltibia 33.7303
lfoot -14.451 0.265698
ltoes -36.6276
656
root -8.34485 17.6915 -5.61205 -320.883 116.472 -337.83
lowerback 13.6116 2.07528 -6.92242
upperback 7.22838 2.82041 -8.66549
thorax 0.232143 1.79295 -5.64219
lowerneck -21.3898 -4.4101 -4.32589
upperneck 45.1853 -5.73752 9.20064
head 24.1859 -0.964616 4.99768
rclavicle -1.04958e-013 -5.40694e-014
rhumerus -13.6305 62.5819 -63.1522
rradius 79.534
rwrist -17.6161
rhand -14.2158 -9.41387
rfingers 7.12502
rthumb 11.921 -39.0545
lclavicle -1.04958e-013 -5.40694e-014
lhumerus 54.8913 -73.9024 37.2933
lradius 41.3567
lwrist -15.4983
lhand -18.7261 59.7388
lfingers 7.12502
lthumb 7.56949 449.583
rfemur -12.5707 -5.03685 25.2139
rtibia 3.97569e-015
rfoot -2.20901 -9.99613
rtoes -26.5795
lfemur -39.0654 -13.564 0.685068
ltibia 33.6406
lfoot -14.385 0.379225
ltoes -36.5876
657
root -8.34943 17.6927 -5.61194 -320.9 116.356 -337.883
lowerback 13.573 2.05913 -6.96069
upperback 7.23214 2.7968 -8.64098
thorax 0.25269 1.77788 -5.58833
lowerneck -21.4851 -4.39429 -4.50034
upperneck 45.1742 -5.65166 9.23349
head 24.219 -0.965556 5.07703
rclavicle -1.27222e-014 -3.18055e-015
rhumerus -13.8027 62.7158 -63.1489
rradius 79.9999
rwrist -15.911
rhand -13.5863 -8.94008
rfingers 7.12502
rthumb 12.528 -38.5445
lclavicle -1.27222e-014 -3.18055e-015
lhumerus 54.5305 -73.7979 37.6242
lradius 41.4386
lwrist -15.4936
lhand -18.7295 59.5536
lfingers 7.12502
lthumb 7.56629 449.398
rfemur -12.6354 -4.95878 25.1207
rtibia 4.45278e-014
rfoot -2.18542 -9.99291
rtoes -26.6602
lfemur -39.0593 -13.5826 0.622302
ltibia 33.5891
lfoot -14.3391 0.491443
ltoes -36.6687
658
root -8.3541 17.6944 -5.61271 -320.895 116.238 -337.876
lowerback 13.5802 2.02914 -6.94074
upperback 7.22111 2.75426 -8.64128
thorax 0.23522 1.75632 -5.5948
lowerneck -21.5838 -4.36015 -4.58266
upperneck 45.1929 -5.54393 9.19819
head 24.2625 -0.948852 5.10626
rclavicle 3.49861e-014 -1.59028e-013
rhumerus -13.9625 62.8802 -63.2222
rradius 80.2847
rwrist -13.1867
rhand -12.9329 -8.07813
rfingers 7.12502
rthumb 13.1579 -37.643
lclavicle 3.49861e-014 -1.59028e-013
lhumerus 54.4199 -73.7321 37.6444
lradius 41.5424
lwrist -15.355
lhand -18.6985 59.5773
lfingers 7.12502
lthumb 7.59615 449.421
rfemur -12.6582 -4.86762 25.0406
rtibia -2.3059e-014
rfoot -2.1545 -9.97786
rtoes -26.5665
lfemur -39.0247 -13.5924 0.567428
ltibia 33.5675
lfoot -14.3146 0.599264
ltoes -36.7453
659
root -8.35742 17.6934 -5.61297 -320.786 116.11 -337.723
lowerback 13.6023 2.02742 -6.89189
upperback 7.2163 2.75172 -8.64269
thorax 0.219555 1.75573 -5.62485
lowerneck -21.7051 -4.28621 -4.55877
upperneck 45.2041 -5.41499 9.15056
head 24.2929 -0.904266 5.11081
rclavicle 5.725e-014 -3.49861e-014
rhumerus -14.1227 63.0266 -63.3297
rradius 80.3955
rwrist -9.35569
rhand -12.5905 -6.89817
rfingers 7.12502
rthumb 13.4879 -36.4414
lclavicle 5.725e-014 -3.49861e-014
lhumerus 54.4236 -73.6866 37.5917
lradius 41.62
lwrist -15.1856
lhand -18.6648 59.6727
lfingers 7.12502
lthumb 7.62871 449.515
rfemur -12.6425 -4.7278 25.0076
rtibia 1.35174e-014
rfoot -2.10596 -9.9614
rtoes -26.5108
lfemur -38.9268 -13.5414 0.549202
ltibia 33.5508
lfoot -14.3335 0.650517
ltoes -36.7346
660
root -8.36012 17.6912 -5.61293 -320.713 115.991 -337.601
lowerback 13.6249 2.02119 -6.8702
upperback 7.23081 2.74432 -8.63721
thorax 0.22291 1.75232 -5.63099
lowerneck -21.8212 -4.21851 -4.55528
upperneck 45.187 -5.30567 9.12914
head 24.3009 -0.868001 5.1253
rclavicle 6.67916e-014 6.36111e-015
rhumerus -14.2169 63.2139 -63.3106
rradius 80.4757
rwrist -4.68763
rhand -12.8042 -5.38175
rfingers 7.12502
rthumb 13.2819 -34.9385
lclavicle 6.67916e-014 6.36111e-015
lhumerus 54.2356 -73.588 37.7625
lradius 41.6597
lwrist -15.1063
lhand -18.6588 59.5856
lfingers 7.12502
lthumb 7.63446 449.428
rfemur -12.6145 -4.60322 24.974
rtibia 3.18055e-014
rfoot -2.09635 -9.98701
rtoes -26.4403
lfemur -38.8232 -13.4333 0.491407
ltibia 33.5305
lfoot -14.3511 0.643114
ltoes -36.7207
